<?xml version="1.0" encoding="UTF-8"?>
<svg id="Capa_1" data-name="Capa 1" xmlns="http://www.w3.org/2000/svg" viewBox="0 0 1024 1024">
  <defs>
    <style>
      .cls-1 {
        fill: #fff;
      }

      .cls-2 {
        fill: #1b3a34;
      }
    </style>
  </defs>
  <rect class="cls-2" width="1024" height="1024"/>
  <path class="cls-1" d="M733.84,224.19l-.33-.16c-87.5-30.71-132.31-18.92-200.15-1.07-6.1,1.6-12.39,3.26-19,4.96-14.84,4.77-30.55,6.04-44.22,3.59-16-3.26-29-10.15-41.57-16.82-21.62-11.46-42.06-22.29-75.69-15.6-16.23,3.2-38.98,11.88-57.64,24.5,101.17-72.07,230.94-95.05,335.54-58.8,8.57,3.16,17.2,6.64,25.91,10.45l1.16-2.58c-8.47-3.93-17.14-7.42-26.01-10.49-200.6-74.07-361.27,25.78-438.96,163.57-32.8,51.23-50.46,108.74-52.11,169.37-3.72,47.35,1.34,94.38,15.34,138.69,30.73,97.25,102.05,173.19,206.26,219.61,52.11,23.32,102.6,33.58,150.3,33.58,94.99,0,178.9-40.74,242.33-100.24,35.74-28.66,62.89-62.57,77.71-98.95.35-.62.7-1.24,1.05-1.87,79.29-142.24,79.14-340.19-99.92-461.75ZM770.51,449.42c.51-.06,1.17-.11,2.05-.14,25.64-1.23,43.89,11.45,54.6,22.3,16.82,17.04,27,41.67,27.46,65.67-19.24-46.54-46.25-75.55-80.32-86.26-1.84-.67-3.03-1.19-3.79-1.58ZM764.49,454.98c61.19,15.02,96.03,87.62,87.93,143.76-12.32-60.27-43.1-109.61-89.26-142.98-.68-.58-1.18-1.04-1.56-1.41.67.11,1.59.3,2.89.62ZM738.13,272.02c17.67,10.86,31.66,28.98,36.99,48.23,4.41,15.94,2.62,31.29-5.19,44.43-7.07,12.75-16.88,23.05-27.27,33.96-10.53,11.05-21.42,22.49-30,37.13-.23.32-.56.84-.92,1.45-.25.41-.65,1.07-1.07,1.69,4.1-24.4,13.15-41.75,21.91-58.56,15.48-29.67,28.89-55.39,5.55-108.34ZM725.48,266.67c.34.56.75,1.23,1.21,2.04l.03.05c30.09,47.41,14.84,78.5-2.83,114.49-7.39,15.06-14.99,30.55-19.87,48.3.09-22.14,7.73-44.06,15.15-65.34,4.24-12.16,8.62-24.74,11.37-36.79,6.01-13.24.12-39.37-3.39-54.99-.63-2.78-1.26-5.62-1.68-7.76ZM700.36,294.35c4.9-10.14,9.94-20.61,13.72-31.42,20.25,36.89,8.28,73.07-4.37,111.33-5.5,16.64-11.18,33.78-13.88,50.92-2.29-7.59-4.21-17.78-6.07-27.72-1.79-9.56-3.65-19.44-5.79-26.62-7.21-27.59,4.25-51.35,16.39-76.5ZM512.41,277.18c1.91,6.09,2.74,33.33,1.63,37.95-5.11,2.6-6.68.75-7.21.13-5.27-6.22,1.13-30.45,5.59-38.08ZM555.12,684.63c1.23.01,2.29,1.65,3.53,3.77.26.44.5.86.68,1.13,11.69,23.23,33.76,39.92,55.21,56.01-24.65,2.78-63.65-18.82-83.64-36.62-.48-.3-.58-.6-.58-.97,0-5.21,18.11-19.13,24.8-23.33ZM393.66,655.34c.32,0,.54.08.66.22,3.71,4.06-11.68,37.04-15.91,42.26-27.5,22.16-71.12,20.76-101.41-3.17-1.07-1.07-1.19-1.65-1.15-1.78.01-.03.3-.82,3.77-1.44,43.83-5.94,78.37-16.6,108.84-33.63,2.62-1.83,4.3-2.46,5.19-2.46ZM482.92,328c-.79.72-1.7,1.56-2.66,2.51-2.14,1.46-7.22,6.53-13.63,12.91-6.55,6.53-16.98,16.93-21.07,19.67,4.71-17.54,20.17-31.87,37.42-35.15-.02.02-.04.04-.06.05ZM498.99,445.49c2.14,71.2-37.48,148.17-97.24,190.63,43.73-55.83,48.32-117.61,52.4-172.4,3.36-45.12,6.53-87.74,30.12-122.12,2.53-3.92,3.55-4.15,3.52-4.19.68.46,1.24,3.84,1.57,5.86.18,1.09.36,2.19.58,3.23l.07.24c8.48,20.86,8.28,41.95,8.07,64.27-.1,11.3-.22,22.98.91,34.47ZM466.91,358.73c-11.18,32.88-13.91,68.1-16.56,102.2-3.18,41.07-6.48,83.54-24.57,122.09-8.77,19.41-41.5,82.35-98.92,89.29.88-.78,2.24-1.88,4.3-3.41l.04-.03c81.83-64.67,92.23-147.7,100.59-214.42,5.61-44.78,10.09-80.52,35.11-95.73ZM393.43,689.41c4.1-9.62,7.96-18.71,9.16-27.11,1.79-15.93,12.39-25.62,23.62-35.87,4.77-4.36,9.71-8.87,13.97-13.89,1.84-1.93,2.98-2.73,3.59-3.07,4.2,49.43-13.38,111.7-54.56,131.79-11.87-14.02-3.69-33.25,4.22-51.85ZM505.52,407.63c-.34,11.67-.69,23.69-2.58,34.48v-2.53c-.11-14.96-.27-42.28-.21-50.58,1.34,1.59,3.24,5.33,3.21,6.34-.19,4.02-.31,8.14-.43,12.3ZM486.04,546.35c.39-.61.94-1.67,1.53-2.86.5-.99,1.27-2.5,1.94-3.63,0,.26,0,.55,0,.89,5.8,77.71-14.31,169.75-87.09,200.34,39.1-35.81,43.99-77.62,49.62-125.69.65-5.55,1.31-11.2,2.04-16.94,11.39-16.8,22.42-33.45,31.97-52.11ZM487.45,635.53c6.47-20.91,6.39-43.83,6.31-65.99-.07-17.55-.13-35.7,3.15-52.02,1.34-4.38,3.28-10.75,5.33-17.51,3.29-10.82,6.88-22.64,8.81-28.87.09-.29.17-.55.25-.78.19.7.41,1.6.64,2.72,11.04,54.26,34.55,101.24,69.87,139.65,4.15,4.43,5.96,8.25,5.53,11.67-30.38,65.69-107.01,117.83-176.19,120.54,43.74-31.76,69.42-68.61,76.31-109.42ZM568.96,667.09h.05c.26,0,1.05.03,1.76,1.47,9.95,30.9,30.88,52.27,55.52,74.35-24.21-7.06-64.8-44.88-65.89-67.35,2.38-4.18,6.29-8.48,8.56-8.48ZM587.96,637.65c2.25-3.12,4.39-6.06,6.06-8.89.76-.41,1.68.17,3.32,1.52l.27.22c15.49,11.04,19.85,25.2,25.38,43.12,1.86,6.04,3.79,12.28,6.28,18.94.74,2.58,1.77,5.38,2.67,7.85.86,2.35,1.96,5.37,2.29,7-.78-.5-2.2-1.6-4.7-3.98-11.02-9.65-17.27-24.53-22.78-37.65l-1.02-2.25h-2.16l-.17,1.21c-2.12,14.9,7.97,26.08,17.74,36.89,10.07,11.15,19.59,21.69,13.85,35.02-2.37,1.12-5.28.9-8.67-.64-19.06-8.69-45.95-54.69-48.91-68.38-3.95-9.95,3.76-20.59,10.57-29.98ZM689.52,682.01c8.36,1.66,20.14,3.77,31.53,5.81,7.64,1.37,14.98,2.69,20.78,3.77,1.99.27,2.51.73,2.58.66-.17.89-3.13,3.01-4.4,3.93l-.93.67s0,0,0,0c-22.91,16.7-55.65,20.91-79.6,10.24-12.35-5.5-27.63-17.39-30.29-42.98-.27-1.13-.76-2.52-1.23-3.85-.4-1.15-1.01-2.87-1.25-3.98,17.49,12.03,40.63,19.03,61.08,25.21l1.73.52ZM571.86,489.46c-1.1-11.07-1.75-22.39-2.38-33.33-1.74-30.26-3.55-61.54-14.84-90.94-1.5-3.96-1.66-5.46-1.61-6.01.34.08,1.06.34,2.36,1.23,28.48,23.15,29.78,48.24,31.57,82.96,1.5,28.94,3.36,64.96,22.77,110.55,16.18,46.29,44.97,88.23,81.36,118.7-78.28-15.82-113.19-107.81-119.24-183.16ZM619.46,636.66c1.09,1.44,1.88,2.56,2.45,3.41-.9-.63-2.08-1.5-3.65-2.72-88.28-69.54-125.75-195.83-87.17-293.75l.08-.29c.78-4.74,1.88-5.03,1.93-5.04.01,0,.03,0,.07,0,.31,0,1.58.31,4.34,4.44,22.98,41.33,26.55,86.63,29.99,130.44,4.35,55.37,8.86,112.62,51.96,163.52ZM515.87,369.92c-2.08,5.83-4.02,7.98-5.14,8.05-.8,0-1.83-1.05-2.79-2.93-6.8-15.76-13.51-33.79-7.25-48.71,3.98-1.85,15.25-2.57,19.2-.09,3.15,3.36,1.43,28.45-4.01,43.68ZM538,760.83c-.43.64-2.07.76-4.26-.27-3.75-1.77-9.89-7.64-7.9-17.61l.11.12.1.11c11.53,10.91,12.86,16.31,11.95,17.65ZM484.32,761.98c-.5.08-1.93.33-3.58-2.11,1.56-1.98,3.62-3.9,5.79-5.93,5.05-4.72,10.28-9.59,10.6-16.54-.11-3.47,4.89-11.1,6.23-11.33,0,0,.37.41.41,2.25-1.42,7.43-12.22,32.45-19.45,33.67ZM453.1,747.81c1.27-.09,3.6-1.14,9.97-4.21,6.69-3.22,22.35-10.77,24.6-8.62.2.19.31,1.02-.61,3.14-.7,2.67-3.61,6.21-6.42,9.64-4.37,5.33-8.88,10.85-7.27,15.36.96,2.7,3.89,4.51,8.78,5.48,6.02,2.04,12.39-6.62,17.03-12.94,1.12-1.53,2.43-3.31,3.36-4.35,0,.4-.03.93-.1,1.61-1.29,4.02-1.59,18.13.86,20.9.54.61,1.27.87,2.02.7,1.3-.3,2.52-1.74,4.28-7.93.38-2.11.53-4.6.7-7.23.12-1.96.25-3.96.47-5.78.3,1.65.59,3.52.83,5.03,1.39,9.07,2.2,12.8,4.57,13.12,1.94.27,2.97-2.1,3.38-2.99l.1-.35c1-6.04-.58-15.09-2.11-23.85-1.16-6.64-2.35-13.5-2.37-18.74.07-3.2,1.53-6.63,2.4-7.47.12.19.29.54.46,1.14.47,3.75.49,8.06.51,12.62.06,14.94.13,31.87,16.96,35.82,4.79.5,11-2.41,12.21-7.35l.06-.26-.03-.26c-.81-6.25-5.14-11.06-9.33-15.71-4.77-5.29-9.27-10.29-9.41-17.6-.81-4.32-.25-6.36.54-6.83.83-.49,2.99,0,6.61,2.9,10.36,7.93,21.72,14.73,31.58,20.49,2.24,1.26,3.44,2.45,3.58,3.54.17,1.31-1.02,3.11-3.84,5.83l-.09.1c-24.87,28.85-41.87,40.38-58.55,40.23-15.21-.25-30.57-10.64-48.27-32.58-.85-1.3-2.38-2.75-4-4.28-2.2-2.09-5.54-5.25-5.22-6.86.13-.64.99-1.13,1.77-1.45ZM537.46,327.16c19.43,5.54,35.36,21.3,38.34,37.49-8.76-6.14-36.04-31.56-38.34-37.49ZM342.31,333.12c-42.76,27.67-79.61,44.84-112.46,52.37,25.89-24.2,62.76-41.37,112.46-52.37ZM312.55,365.05c-15.99,32.04-29.27,41.8-33.1,41.32-.45-.04-.79-.2-.97-.85-1.11-3.99,5.59-19.52,32.68-39.6l.6-.37c.19-.12.48-.3.8-.5ZM242.26,398.86c-.17-1.51-1.14-1.48-5.56-1.27-1.01-.08-3.21.1-7,.44-3.57.32-10.26.9-13.39.71.39-.23.91-.5,1.59-.83,26.38-8.74,51.89-19.37,78.89-30.63l4.36-1.82c-11.53,11.93-26.86,27.54-41.7,36.07-9.21,4.19-22.85,6.34-33.71,2.31,2.8-.91,8.2-1.92,10.85-2.41,5.29-.99,5.85-1.09,5.68-2.57ZM423.6,222.15c-39.91-9.23-78.39-8.19-111.02,2.94-.28.04-.8.15-1.43.3-.33.08-.82.19-1.37.31,18.6-12.41,39.74-18.67,60.99-18.67,19.05,0,38.2,5.03,55.7,15.17.25.15.47.29.66.42-.81-.06-1.95-.19-3.53-.47ZM424.95,239.5c-43.47,19.18-87.96,13.41-119.48,4.16,37.43-9.39,86.94-6.48,119.48-4.16ZM422.22,230.83c-37.12-.67-78.79-1.43-115.8,4.96,19.01-9.09,39.66-13.62,62.71-13.62,18.56,0,38.68,2.94,60.76,8.79l-7.67-.14ZM267.22,252.32l-.72,1.36,1.42.6c4.89,2.08,11.06,1.24,17.02.44,4.77-.65,9.71-1.32,14.01-.43,9.27.61,18.69,2.33,27.79,3.99,13.93,2.55,28.33,5.18,42.73,4,16.84.18,32.91-5.09,48.42-10.18,16.52-5.41,33.58-11.01,51.4-9.8,4.29.19,5.16.84,5.2.84-.13.46-1.69,2.22-7.23,4.73-24.85,10.43-46.25,25.49-66.93,40.06-15.78,11.11-32.09,22.59-49.66,31.78-55.7,15.49-95.49,28.57-139.02,67.45-8.78,7.06-13.04,11.39-12.02,15.4.87,3.41,5.38,5.55,15.39,7.33,17.45,5.43,33.36,4.99,51.55-1.43,1.62.08,2.64,1.24,4.13,3.09,1.13,1.4,2.41,2.99,4.29,3.87l.36.17.39-.04c16.43-1.85,28.27-19.39,40.81-37.95,11.1-16.44,22.56-33.41,37.8-40.34-.17.68-.61,1.79-1.32,3.32-.5,1.08-.98,2.1-1.23,3.02-10.89,21.95-17.18,45.84-23.26,68.94-3.58,13.6-7.28,27.66-11.86,41.06l-.44,1.29,1.28.49c1.04.39,2.15.31,3.2-.24,5.77-3.04,10.52-20.94,16.61-45.88,1.86-7.62,3.65-14.98,5.18-19.88-.03.97-.07,1.98-.1,2.94-.44,11.64-.41,19.33,3.78,20.16l1.47.29.2-1.49c.62-4.56,1.17-9.16,1.71-13.76,3.47-29.29,7.05-59.57,31.86-81.37,38.27-33.93,86.74-60.41,148.11-80.93,1.67-.46,2.64-.62,3.18-.65-.91,1.64-4.24,5.25-7.22,8.49-11.5,12.5-30.74,33.41-29.79,55.26.25,9.63-5.94,16.99-16.27,19.26-50,15.57-52.6,62.92-55.12,108.72-.75,13.52-1.45,26.29-3.37,38.15-6.24,49.63-22.23,99.45-43.85,136.68-28.38,48.87-64.91,76.06-108.59,80.8-4.42.54-7.06,2.03-7.83,4.42-1.17,3.64,2.52,8.01,5.81,11.03,34.86,32.14,69.02,25.54,89.42,21.61,7.53-1.45,13.48-2.6,15.69-.9.42.32.99.94,1.09,2.52.41,13.6,3.57,22.89,9.66,28.41,8.43,7.64,21.05,6.78,33.27,5.95,11.42-.78,22.19-1.52,29.44,3.97,1.99,2.01,3.97,4.07,5.97,6.13,13.81,14.3,28.1,29.08,47.35,35.38,23.74,9.08,42.39-8.97,60.42-26.42,7.48-7.25,15.22-14.74,23.07-19.93,6.2-.57,13.14.04,19.85.62,17.22,1.5,35.02,3.03,42.48-14.39,1.86-3.52,2.17-8.11,2.47-12.55.34-4.96.66-9.65,3.12-11.16,1.71-1.05,4.69-.69,8.98,1.13,34.64,11.1,69.97,3.47,94.47-20.39,4.16-3.68,5.7-6.27,5.15-8.68-.86-3.76-6.59-5.38-16.09-8.06-23.73-6.7-67.9-19.18-98.77-79.39-34.06-50.81-39.42-107.61-44.15-157.73-5.84-61.95-10.9-115.48-71-130.93-3.88-4.35-3.76-11.12-3.65-17.67.07-3.68.13-7.48-.5-10.66-.25-2.72-.89-5.19-1.5-7.56-1.09-4.24-2.03-7.9-.48-11.63,25.9-51.54,120.61-55.43,164.33-43.06,29.4,18.81,14.43,49.85-.04,79.87-5.95,12.34-11.57,24.01-13.59,34.13-5.77,8.46,10.15,83.81,19.27,115.23,9.21,31.76,13.41,31.47,15.13,31.35,2.95-.19,3.99-4.61,4.59-8.68-.6-30.97,18.53-50.58,38.78-71.33,9.51-9.75,19.34-19.82,26.94-31.25,26.48-49.12-1.78-75.01-29.1-100.06-13.25-12.14-26.92-24.68-33.53-39.61,46.84,14.06,87.11,50.54,116.62,105.7,43.15,80.68,55.87,190.35,30.93,266.64-.28.73-.67,2.03-1.09,3.49,5.6-47.32,4.98-109.14-27.5-142.95-17.61-18.33-42.79-26.22-74.77-23.45-5.92.08-19.85.88-21.38,6.64-.83,3.09,1.98,6.49,8.41,10.28,98.97,79.51,104.26,156.17,91.28,206.47-1.93,7.46-4.38,14.83-7.33,22.11-20.1,35.59-46.26,69.25-77.35,98.37-48.6,38.83-113.22,67.94-184.41,80.27-144.33,24.99-275.46-26.39-350.75-137.47-35.91-54.34-12.44-88.39,4.7-113.26,8.56-12.42,15.32-22.23,11.18-30.77l-.36-.46c-1.26-1.07-2.92-1.6-4.94-1.6-.6,0-1.23.05-1.89.14-7.65,1.08-18.18,8.42-23.29,16.15-17.26,17.61-13.82,57.79-11.97,79.38.4,4.64.81,9.39.77,11.92-.44-.69-1.03-1.72-1.83-3.28-32.62-70.23-.54-149.6,45.89-197.3,5.58-8.23,17.3-15.99,27.65-22.83,11.54-7.63,19.87-13.15,18.6-18.17-.92-3.64-6.42-5.65-18.36-6.71-32.47-3.46-57.93,3.64-75.65,21.1-32.53,32.06-34.03,91.98-30.11,144.31-10.73-37.86-15.48-75.28-14.43-111.59,3.82-45.83,15.65-90.75,33.82-131.91,5.31-12.04,11.25-23.89,17.77-35.47,17.88-27.95,40.3-54.01,67.12-77.66,8.26-7.29,16.79-14.2,25.56-20.74-8.75,6.9-16.1,14.75-20.66,23.35ZM256.46,455.3c-50.31,40.8-80.35,91.04-89.31,149.37-6.36-62.09,25.9-135.27,89.31-149.37ZM246.44,448.21c.91-.04,1.7-.06,2.38-.06,1.34,0,2.26.07,2.89.15-.73.42-1.96,1.02-4.04,1.82-45.68,15.34-68.68,55.59-82.1,87.53,2.96-44.55,30.62-87.95,80.87-89.44ZM199.91,631.93c3.5-11.36,11.26-24.74,22.03-32.4-5.22,8.38-16.53,25.33-22.03,32.4Z"/>
</svg>