<?xml version="1.0" encoding="UTF-8"?>
<svg id="Capa_2" data-name="Capa 2" xmlns="http://www.w3.org/2000/svg" viewBox="0 0 812.76 177.66">
  <defs>
    <style>
      .cls-1 {
        fill: #fff;
      }

      .cls-2 {
        fill: #f8f4ec;
      }
    </style>
  </defs>
  <g id="Capa_1-2" data-name="Capa 1">
    <g>
      <g>
        <path class="cls-2" d="M236.4,135.8V38.19c0-4.82-2.24-6.89-4.65-6.89-2.07,0-4.3,1.72-4.65,4.82-.52,4.99,3.79,7.58,5.16,12.57,2.07,7.58-3.44,12.22-9.47,12.22-3.96,0-8.26-2.24-10.16-7.06-2.93-7.57,1.72-16.87,8.78-20.66,4.99-2.93,10.33-4.3,15.84-4.3h74.89l-6.89,19.8c-10.33-13.26-24.79-18.42-38.56-18.25h-7.58v55.95h1.72c15.15,0,30.13-5.17,36.15-10.67v22.9c-6.03-5.68-21-10.85-36.15-10.85h-1.72v48.03c0,5.68,1.03,10.5,3.62,13.43h-29.95c2.58-2.93,3.62-7.75,3.62-13.43Z"/>
        <path class="cls-2" d="M316.96,66.43c9.64-3.1,18.42-7.4,26.34-12.57v66.62c0,28.4,9.64,54.57,43.38,53.88,27.37-.52,47-22.04,73.51-21,18.76.69,14.81,27.89-6.54,20.49-8.61-2.93-15.67-3.96-22.21-3.96-17.9,0-31.33,8.26-59.91,7.75-32.02-.52-50.96-24.27-50.96-54.92v-42.69c0-5.68-.86-10.67-3.62-13.6ZM319.2,39.74c0-7.06,5.85-12.74,12.74-12.74s12.74,5.68,12.74,12.74-5.68,12.57-12.74,12.57-12.74-5.68-12.74-12.57Z"/>
        <path class="cls-2" d="M363.62,75.38c-1.38,4.65-3.96,24.79,16.53,31.5,6.89,25.48,22.55,43.55,35.29,40.63,12.57-2.93,17.22-26,10.33-51.47-6.89-25.31-22.72-43.55-35.29-40.46-15.15,4.13-21,49.41,1.03,48.2,3.1-.17,5.68-3.1,6.03-5.85.52-3.96-3.44-6.37-4.65-10.33-2.24-7.23,2.93-12.05,8.44-12.05,3.79,0,7.75,2.41,9.3,7.92,3.62,12.57-8.44,21.86-20.14,21.86-14.98,0-24.27-10.16-25.13-21.69-1.55-19.97,19.97-31.85,37.53-31.85,25.65,0,46.31,22.21,46.31,49.75s-20.66,49.75-46.31,49.75-46.14-22.38-46.14-49.75c0-9.64,2.58-18.59,6.89-26.17Z"/>
        <path class="cls-2" d="M458.3,66.43c9.64-3.1,18.42-7.4,26.34-12.57v25.99c8.44-26.86,46.65-55.95,71.1-57.33,19.11-1.03,17.9,23.24-1.2,22.04-48.38-3.1-69.89,16.87-69.89,64.39v26.86c0,5.68,1.03,10.5,3.79,13.43h-30.13c2.75-2.93,3.62-7.75,3.62-13.43v-55.78c0-5.68-.86-10.67-3.62-13.6Z"/>
        <path class="cls-2" d="M545.92,51.79c12.22-.17,29.78,6.2,33.91,18.59,2.07,6.54-3.79,12.39-9.98,12.39-3.44,0-7.06-1.72-9.47-6.03-4.65-8.09-14.8-21.17-24.62-21.17-1.55,0-3.1.17-4.48.86-26.34,11.71-6.71,83.32,28.06,88.66,39.42,6.03,2.41-94.68,82.29-94,19.28.17,36.32,16.01,36.32,43.9v40.28c0,5.68.86,11.02,3.62,13.94-11.36,0-22.38.34-26.51-12.91-2.75,9.3-12.05,14.46-22.9,14.81-16.7.52-32.71-5.85-33.05-24.45-.34-18.77,18.25-26,33.23-31.33,11.71-4.13,23.58-6.2,28.23-18.25,1.38-3.62,1.72-6.89,1.38-9.64-1.03-8.26-8.44-13.6-16.35-14.63-45.79-6.03-30.99,99.85-102.09,98.47-25.48-.52-43.73-22.38-43.73-49.75s20.66-49.75,46.14-49.75ZM638.54,147.51c10.16-.34,16.53-8.95,16.53-19.45v-41.14c-10.33,9.64-32.71,6.37-32.88,37.53-.17,9.64,4.82,23.41,16.35,23.07Z"/>
        <path class="cls-2" d="M629.07,15.3c3.79,0,7.75,2.24,10.5,8.26,3.62,7.75,9.3,10.67,15.84,11.02,21,1.03,38.05-20.49,56.12-29.44,7.57-3.96,16.87-5.68,25.31-4.99,13.94,1.2,26.17,8.61,27.2,25.13,1.03,16.35-17.22,30.47-50.79,29.95v65.59c0,11.36,1.38,30.47,15.67,30.3-23.76,1.38-38.39-13.26-38.39-37.36v-58.53h-6.54v-1.38c10.5-.69,25.65-9.98,29.27-21.17v21.17c43.21.69,38.91-51.13,11.71-51.13-2.75,0-5.51.52-8.61,1.55-20.83,7.23-44.41,40.8-72.65,39.6-7.57-.34-15.49-3.27-21-9.64-7.75-8.78-1.2-18.94,6.37-18.94Z"/>
        <path class="cls-2" d="M763.52,95.35c11.71-4.13,23.76-6.2,28.23-18.25,5.16-14.12-4.65-23.58-14.29-23.58-6.2,0-12.05,3.79-14.8,12.39-.86,2.75-1.03,5.68-.86,9.12.34,7.75-4.48,11.19-9.64,11.19-5.51,0-11.02-3.62-11.53-9.98-1.21-16.53,14.98-23.41,28.92-24.27,26.51-1.72,39.6,18.76,39.6,43.04v40.28c0,5.68.86,11.02,3.62,13.94-11.36,0-22.38.34-26.34-12.91-2.93,9.3-12.22,14.46-23.07,14.81-16.7.52-32.54-5.85-33.05-24.45-.52-18.77,18.25-26,33.23-31.33ZM753.37,124.44c0,9.64,4.99,23.41,16.35,23.07,10.16-.34,16.7-8.95,16.7-19.45v-41.14c-10.5,9.64-32.88,6.37-33.05,37.53Z"/>
      </g>
      <path class="cls-1" d="M140.77,20.65l-.08-.04c-20.73-7.28-31.34-4.48-47.41-.25-1.44.38-2.93.77-4.5,1.18-3.51,1.13-7.24,1.43-10.47.85-3.79-.77-6.87-2.41-9.85-3.98-5.12-2.71-9.96-5.28-17.93-3.7-3.85.76-9.23,2.81-13.65,5.8C60.84,3.44,91.58-2,116.35,6.58c2.03.75,4.07,1.57,6.14,2.47l.27-.61c-2.01-.93-4.06-1.76-6.16-2.49C69.09-11.58,31.03,12.07,12.62,44.71,4.85,56.85.67,70.47.28,84.83c-.88,11.22.32,22.36,3.63,32.85,7.28,23.04,24.17,41.03,48.86,52.02,12.34,5.52,24.3,7.95,35.6,7.95,22.5,0,42.38-9.65,57.4-23.74,8.47-6.79,14.9-14.82,18.41-23.44.08-.15.17-.29.25-.44,18.78-33.69,18.75-80.58-23.67-109.38ZM149.45,74.01c.12-.01.28-.03.49-.03,6.07-.29,10.4,2.71,12.93,5.28,3.98,4.04,6.4,9.87,6.5,15.56-4.56-11.02-10.96-17.9-19.03-20.43-.44-.16-.72-.28-.9-.37ZM148.03,75.32c14.5,3.56,22.75,20.76,20.83,34.06-2.92-14.28-10.21-25.96-21.15-33.87-.16-.14-.28-.25-.37-.33.16.03.38.07.68.15ZM141.78,31.98c4.19,2.57,7.5,6.87,8.76,11.43,1.04,3.77.62,7.41-1.23,10.52-1.67,3.02-4,5.46-6.46,8.04-2.49,2.62-5.07,5.33-7.11,8.8-.06.08-.13.2-.22.34-.06.1-.15.25-.25.4.97-5.78,3.12-9.89,5.19-13.87,3.67-7.03,6.84-13.12,1.32-25.66ZM138.79,30.72c.08.13.18.29.29.48h0c7.13,11.24,3.51,18.61-.67,27.13-1.75,3.57-3.55,7.24-4.71,11.44.02-5.25,1.83-10.44,3.59-15.48,1-2.88,2.04-5.86,2.69-8.72,1.42-3.14.03-9.33-.8-13.03-.15-.66-.3-1.33-.4-1.84ZM132.84,37.27c1.16-2.4,2.36-4.88,3.25-7.44,4.8,8.74,1.96,17.31-1.04,26.37-1.3,3.94-2.65,8-3.29,12.06-.54-1.8-1-4.21-1.44-6.57-.42-2.26-.86-4.6-1.37-6.31-1.71-6.54,1.01-12.16,3.88-18.12ZM88.32,33.21c.45,1.44.65,7.9.39,8.99-1.21.62-1.58.18-1.71.03-1.25-1.47.27-7.21,1.32-9.02ZM98.43,129.72c.29,0,.54.39.84.89.06.1.12.2.16.27,2.77,5.5,8,9.46,13.08,13.27-5.84.66-15.08-4.46-19.81-8.67-.11-.07-.14-.14-.14-.23,0-1.23,4.29-4.53,5.88-5.53ZM60.19,122.78c.08,0,.13.02.16.05.88.96-2.77,8.77-3.77,10.01-6.51,5.25-16.85,4.92-24.02-.75-.25-.25-.28-.39-.27-.42,0,0,.07-.19.89-.34,10.38-1.41,18.56-3.93,25.78-7.97.62-.43,1.02-.58,1.23-.58ZM81.33,45.24c-.19.17-.4.37-.63.59-.51.35-1.71,1.55-3.23,3.06-1.55,1.55-4.02,4.01-4.99,4.66,1.12-4.15,4.78-7.55,8.86-8.33,0,0,0,0-.01.01ZM85.14,73.08c.51,16.87-8.88,35.1-23.03,45.16,10.36-13.23,11.45-27.86,12.41-40.84.8-10.69,1.55-20.78,7.13-28.93.6-.93.84-.98.83-.99.16.11.29.91.37,1.39.04.26.09.52.14.76l.02.06c2.01,4.94,1.96,9.94,1.91,15.23-.02,2.68-.05,5.44.21,8.17ZM77.54,52.52c-2.65,7.79-3.3,16.13-3.92,24.21-.75,9.73-1.53,19.79-5.82,28.92-2.08,4.6-9.83,19.51-23.43,21.15.21-.19.53-.45,1.02-.81h0c19.38-15.32,21.85-34.99,23.83-50.8,1.33-10.61,2.39-19.07,8.32-22.68ZM60.13,130.86c.97-2.28,1.89-4.43,2.17-6.42.42-3.77,2.94-6.07,5.59-8.5,1.13-1.03,2.3-2.1,3.31-3.29.44-.46.71-.65.85-.73.99,11.71-3.17,26.46-12.92,31.22-2.81-3.32-.88-7.88,1-12.28ZM86.68,64.11c-.08,2.77-.16,5.61-.61,8.17v-.6c-.03-3.54-.06-10.01-.05-11.98.32.38.77,1.26.76,1.5-.05.95-.07,1.93-.1,2.91ZM82.07,96.97c.09-.14.22-.4.36-.68.12-.23.3-.59.46-.86,0,.06,0,.13,0,.21,1.37,18.41-3.39,40.21-20.63,47.46,9.26-8.48,10.42-18.39,11.75-29.77.15-1.31.31-2.65.48-4.01,2.7-3.98,5.31-7.92,7.57-12.34ZM82.4,118.09c1.53-4.95,1.51-10.38,1.49-15.63-.02-4.16-.03-8.46.75-12.32.32-1.04.78-2.55,1.26-4.15.78-2.56,1.63-5.36,2.09-6.84.02-.07.04-.13.06-.18.05.16.1.38.15.64,2.62,12.85,8.18,23.98,16.55,33.08.98,1.05,1.41,1.95,1.31,2.77-7.2,15.56-25.35,27.91-41.74,28.55,10.36-7.52,16.44-16.25,18.08-25.92ZM101.71,125.57h.01c.06,0,.25,0,.42.35,2.36,7.32,7.32,12.38,13.15,17.61-5.74-1.67-15.35-10.63-15.61-15.95.56-.99,1.49-2.01,2.03-2.01ZM106.21,118.59c.53-.74,1.04-1.44,1.43-2.11.18-.1.4.04.79.36l.06.05c3.67,2.61,4.7,5.97,6.01,10.21.44,1.43.9,2.91,1.49,4.49.18.61.42,1.27.63,1.86.2.56.47,1.27.54,1.66-.18-.12-.52-.38-1.11-.94-2.61-2.29-4.09-5.81-5.4-8.92l-.24-.53h-.51l-.04.29c-.5,3.53,1.89,6.18,4.2,8.74,2.39,2.64,4.64,5.14,3.28,8.3-.56.26-1.25.21-2.05-.15-4.51-2.06-10.88-12.95-11.59-16.2-.94-2.36.89-4.88,2.5-7.1ZM130.27,129.1c1.98.39,4.77.89,7.47,1.38,1.81.32,3.55.64,4.92.89.47.06.59.17.61.16-.04.21-.74.71-1.04.93l-.22.16s0,0,0,0c-5.43,3.96-13.18,4.95-18.86,2.43-2.93-1.3-6.54-4.12-7.17-10.18-.06-.27-.18-.6-.29-.91-.1-.27-.24-.68-.3-.94,4.14,2.85,9.63,4.51,14.47,5.97l.41.12ZM102.4,83.49c-.26-2.62-.41-5.3-.56-7.9-.41-7.17-.84-14.58-3.51-21.54-.35-.94-.39-1.29-.38-1.42.08.02.25.08.56.29,6.75,5.48,7.05,11.43,7.48,19.65.35,6.86.8,15.39,5.39,26.19,3.83,10.96,10.65,20.9,19.27,28.12-18.54-3.75-26.81-25.54-28.25-43.39ZM113.67,118.36c.26.34.45.61.58.81-.21-.15-.49-.35-.86-.64-20.91-16.47-29.79-46.39-20.65-69.58l.02-.07c.18-1.12.45-1.19.46-1.19,0,0,0,0,.02,0,.07,0,.37.07,1.03,1.05,5.44,9.79,6.29,20.52,7.1,30.9,1.03,13.12,2.1,26.68,12.31,38.73ZM89.13,55.17c-.49,1.38-.95,1.89-1.22,1.91-.19,0-.43-.25-.66-.69-1.61-3.73-3.2-8-1.72-11.54.94-.44,3.61-.61,4.55-.02.75.8.34,6.74-.95,10.35ZM94.38,147.77c-.1.15-.49.18-1.01-.06-.89-.42-2.34-1.81-1.87-4.17l.03.03.02.03c2.73,2.58,3.05,3.86,2.83,4.18ZM81.66,148.05c-.12.02-.46.08-.85-.5.37-.47.86-.92,1.37-1.4,1.2-1.12,2.43-2.27,2.51-3.92-.03-.82,1.16-2.63,1.48-2.68,0,0,.09.1.1.53-.34,1.76-2.89,7.69-4.61,7.98ZM74.27,144.69c.3-.02.85-.27,2.36-1,1.59-.76,5.29-2.55,5.83-2.04.05.05.07.24-.14.74-.17.63-.86,1.47-1.52,2.28-1.03,1.26-2.1,2.57-1.72,3.64.23.64.92,1.07,2.08,1.3,1.43.48,2.93-1.57,4.04-3.06.27-.36.58-.79.8-1.03,0,.1,0,.22-.02.38-.3.95-.38,4.3.2,4.95.13.14.3.21.48.17.31-.07.6-.41,1.01-1.88.09-.5.13-1.09.16-1.71.03-.47.06-.94.11-1.37.07.39.14.83.2,1.19.33,2.15.52,3.03,1.08,3.11.46.06.7-.5.8-.71l.02-.08c.24-1.43-.14-3.57-.5-5.65-.27-1.57-.56-3.2-.56-4.44.02-.76.36-1.57.57-1.77.03.05.07.13.11.27.11.89.12,1.91.12,2.99.01,3.54.03,7.55,4.02,8.48,1.14.12,2.61-.57,2.89-1.74l.02-.06v-.06c-.2-1.48-1.23-2.62-2.22-3.72-1.13-1.25-2.2-2.44-2.23-4.17-.19-1.02-.06-1.51.13-1.62.2-.12.71,0,1.57.69,2.45,1.88,5.15,3.49,7.48,4.85.53.3.82.58.85.84.04.31-.24.74-.91,1.38l-.02.02c-5.89,6.83-9.92,9.56-13.87,9.53-3.6-.06-7.24-2.52-11.43-7.72-.2-.31-.56-.65-.95-1.01-.52-.5-1.31-1.24-1.24-1.63.03-.15.23-.27.42-.34ZM94.25,45.05c4.6,1.31,8.38,5.05,9.08,8.88-2.08-1.46-8.54-7.48-9.08-8.88ZM48.02,46.46c-10.13,6.55-18.86,10.62-26.64,12.4,6.13-5.73,14.87-9.8,26.64-12.4ZM40.97,54.02c-3.79,7.59-6.93,9.9-7.84,9.79-.11,0-.19-.05-.23-.2-.26-.95,1.32-4.62,7.74-9.38l.14-.09s.11-.07.19-.12ZM24.32,62.03c-.04-.36-.27-.35-1.32-.3-.24-.02-.76.02-1.66.1-.84.08-2.43.21-3.17.17.09-.05.22-.12.38-.2,6.25-2.07,12.29-4.59,18.69-7.26l1.03-.43c-2.73,2.83-6.36,6.52-9.88,8.54-2.18.99-5.41,1.5-7.99.55.66-.22,1.94-.45,2.57-.57,1.25-.23,1.39-.26,1.35-.61ZM67.28,20.17c-9.45-2.19-18.57-1.94-26.3.7-.07,0-.19.04-.34.07-.08.02-.19.05-.32.07,4.41-2.94,9.41-4.42,14.45-4.42,4.51,0,9.05,1.19,13.19,3.59.06.04.11.07.16.1-.19-.01-.46-.05-.84-.11ZM67.6,24.28c-10.3,4.54-20.84,3.18-28.3.99,8.87-2.23,20.6-1.54,28.3-.99ZM66.95,22.23c-8.79-.16-18.66-.34-27.43,1.17,4.5-2.15,9.4-3.23,14.85-3.23,4.4,0,9.16.7,14.39,2.08l-1.82-.03ZM30.23,27.32l-.17.32.34.14c1.16.49,2.62.29,4.03.1,1.13-.15,2.3-.31,3.32-.1,2.2.14,4.43.55,6.58.95,3.3.6,6.71,1.23,10.12.95,3.99.04,7.8-1.21,11.47-2.41,3.91-1.28,7.96-2.61,12.17-2.32,1.02.05,1.22.2,1.23.2-.03.11-.4.53-1.71,1.12-5.89,2.47-10.95,6.04-15.86,9.49-3.74,2.63-7.6,5.35-11.76,7.53-13.19,3.67-22.62,6.77-32.93,15.98-2.08,1.67-3.09,2.7-2.85,3.65.21.81,1.27,1.31,3.65,1.74,4.13,1.29,7.9,1.18,12.21-.34.38.02.62.29.98.73.27.33.57.71,1.02.92l.09.04h.09c3.89-.45,6.7-4.6,9.67-9,2.63-3.89,5.34-7.91,8.95-9.56-.04.16-.15.42-.31.79-.12.25-.23.5-.29.71-2.58,5.2-4.07,10.86-5.51,16.33-.85,3.22-1.72,6.55-2.81,9.73l-.11.31.3.12c.25.09.51.07.76-.06,1.37-.72,2.49-4.96,3.93-10.87.44-1.81.86-3.55,1.23-4.71,0,.23-.02.47-.02.7-.1,2.76-.1,4.58.9,4.78l.35.07.05-.35c.15-1.08.28-2.17.41-3.26.82-6.94,1.67-14.11,7.55-19.28,9.07-8.04,20.55-14.31,35.08-19.17.4-.11.63-.15.75-.15-.22.39-1,1.24-1.71,2.01-2.72,2.96-7.28,7.91-7.06,13.09.06,2.28-1.41,4.03-3.85,4.56-11.84,3.69-12.46,14.91-13.06,25.75-.18,3.2-.34,6.23-.8,9.04-1.48,11.76-5.26,23.56-10.39,32.38-6.72,11.58-15.38,18.02-25.72,19.14-1.05.13-1.67.48-1.85,1.05-.28.86.6,1.9,1.38,2.61,8.26,7.61,16.35,6.05,21.18,5.12,1.78-.34,3.19-.62,3.72-.21.1.08.23.22.26.6.1,3.22.85,5.42,2.29,6.73,2,1.81,4.99,1.61,7.88,1.41,2.7-.19,5.26-.36,6.97.94.47.48.94.96,1.41,1.45,3.27,3.39,6.66,6.89,11.22,8.38,5.62,2.15,10.04-2.13,14.31-6.26,1.77-1.72,3.61-3.49,5.47-4.72,1.47-.13,3.11,0,4.7.15,4.08.35,8.3.72,10.06-3.41.44-.83.51-1.92.59-2.97.08-1.18.16-2.29.74-2.64.41-.25,1.11-.16,2.13.27,8.2,2.63,16.58.82,22.38-4.83.99-.87,1.35-1.49,1.22-2.06-.2-.89-1.56-1.27-3.81-1.91-5.62-1.59-16.08-4.54-23.4-18.81-8.07-12.04-9.34-25.49-10.46-37.36-1.38-14.68-2.58-27.35-16.82-31.01-.92-1.03-.89-2.63-.86-4.19.02-.87.03-1.77-.12-2.53-.06-.65-.21-1.23-.35-1.79-.26-1-.48-1.87-.11-2.76,6.14-12.21,28.57-13.13,38.93-10.2,6.96,4.46,3.42,11.81,0,18.92-1.41,2.92-2.74,5.69-3.22,8.08-1.37,2,2.41,19.85,4.56,27.29,2.18,7.52,3.18,7.45,3.58,7.43.7-.05.95-1.09,1.09-2.06-.14-7.34,4.39-11.98,9.19-16.9,2.25-2.31,4.58-4.7,6.38-7.4,6.27-11.63-.42-17.77-6.89-23.7-3.14-2.88-6.38-5.85-7.94-9.38,11.09,3.33,20.64,11.97,27.63,25.04,10.22,19.11,13.23,45.09,7.33,63.16-.07.17-.16.48-.26.83,1.33-11.21,1.18-25.85-6.51-33.86-4.17-4.34-10.14-6.21-17.71-5.55-1.4.02-4.7.21-5.07,1.57-.2.73.47,1.54,1.99,2.43,23.44,18.83,24.7,36.99,21.62,48.91-.46,1.77-1.04,3.51-1.74,5.24-4.76,8.43-10.96,16.4-18.32,23.3-11.51,9.2-26.82,16.09-43.68,19.01-34.19,5.92-65.25-6.25-83.09-32.56-8.51-12.87-2.95-20.94,1.11-26.83,2.03-2.94,3.63-5.27,2.65-7.29l-.08-.11c-.3-.25-.69-.38-1.17-.38-.14,0-.29.01-.45.03-1.81.26-4.31,2-5.52,3.83-4.09,4.17-3.27,13.69-2.84,18.8.09,1.1.19,2.22.18,2.82-.1-.16-.24-.41-.43-.78-7.73-16.64-.13-35.44,10.87-46.74,1.32-1.95,4.1-3.79,6.55-5.41,2.73-1.81,4.71-3.11,4.41-4.3-.22-.86-1.52-1.34-4.35-1.59-7.69-.82-13.72.86-17.92,5-7.7,7.59-8.06,21.79-7.13,34.18-2.54-8.97-3.67-17.83-3.42-26.43.91-10.86,3.71-21.5,8.01-31.25,1.26-2.85,2.66-5.66,4.21-8.4,4.24-6.62,9.55-12.79,15.9-18.4,1.96-1.73,3.98-3.36,6.05-4.91-2.07,1.63-3.81,3.49-4.89,5.53ZM27.69,75.4c-11.92,9.67-19.03,21.57-21.16,35.38-1.51-14.71,6.14-32.04,21.16-35.38ZM25.31,73.72c.22,0,.4-.01.56-.01.32,0,.54.02.68.03-.17.1-.47.24-.96.43-10.82,3.63-16.27,13.17-19.45,20.73.7-10.55,7.25-20.83,19.16-21.19ZM14.29,117.24c.83-2.69,2.67-5.86,5.22-7.68-1.24,1.98-3.91,6-5.22,7.68Z"/>
    </g>
  </g>
</svg>